<svg width="23" height="30" viewBox="0 0 23 30" fill="none" xmlns="http://www.w3.org/2000/svg">
<path d="M22.5 10.3115C22.5 8.47577 21.7964 6.77127 20.5923 5.35873C20.6516 5.21728 20.6903 5.0679 20.7069 4.91528C20.7069 4.91528 21.4995 3.1979 20.463 0.00849201C20.463 0.00849201 18.4511 -0.236847 15.6465 1.90987C15.5721 1.96691 15.5044 2.02518 15.441 2.08345C12.8023 1.27764 9.98503 1.27957 7.34743 2.08897C7.2828 2.02763 7.21269 1.9663 7.13587 1.90987C4.3313 -0.236847 2.31933 0.00849201 2.31933 0.00849201C1.28286 3.1979 2.07546 4.91528 2.07546 4.91528C2.09305 5.07487 2.13414 5.23094 2.19739 5.37836C1.00363 6.78906 0.307362 8.48435 0.307362 10.3115C0.307362 14.3099 3.64601 17.6876 8.22538 18.7757C7.40047 19.6031 7.01393 21.2162 7.01393 21.2162C6.95296 21.3524 6.95296 21.4137 6.75725 21.4751H5.13914C4.99394 21.4751 4.85244 21.429 4.73492 21.3432C3.8783 20.7194 2.68514 19.1437 2.68514 19.1437C1.69745 17.9741 0.170792 17.9913 0.00251804 17.9784C-0.000839347 17.9214 -0.000839347 17.8642 0.00251804 17.8072V19.9411C1.34383 19.8074 2.06326 21.7689 2.68514 22.3945C3.44421 23.1581 5.31839 23.7236 6.8109 23.8168C6.86595 23.8203 6.91762 23.8447 6.95535 23.8852C6.99308 23.9257 7.01403 23.9791 7.01393 24.0346V30H15.7934V21.5971C15.7934 21.6309 15.7934 21.6235 15.7934 21.2905C15.7934 19.5731 14.8789 19.1535 14.6009 18.7708C19.1705 17.6784 22.5 14.3044 22.5 10.3115Z" fill="white"/>
</svg>
