<svg width="30" height="30" viewBox="0 0 30 30" fill="none" xmlns="http://www.w3.org/2000/svg">
<path d="M15.0054 7.29675C10.7516 7.29675 7.30786 10.7443 7.30786 14.9943C7.30786 19.248 10.7554 22.6918 15.0054 22.6918C19.2591 22.6918 22.7029 19.2443 22.7029 14.9943C22.7029 10.7405 19.2554 7.29675 15.0054 7.29675ZM15.0054 19.9905C12.2441 19.9905 10.0091 17.7543 10.0091 14.9943C10.0091 12.2343 12.2454 9.998 15.0054 9.998C17.7654 9.998 20.0016 12.2343 20.0016 14.9943C20.0029 17.7543 17.7666 19.9905 15.0054 19.9905Z" fill="black"/>
<path d="M21.1853 0.0942333C18.4253 -0.0345167 11.589 -0.0282667 8.82654 0.0942333C6.39904 0.207983 4.25779 0.794233 2.53153 2.52048C-0.353466 5.40548 0.0152841 9.29299 0.0152841 14.9942C0.0152841 20.8292 -0.309716 24.6267 2.53153 27.468C5.42779 30.363 9.37154 29.9842 15.0053 29.9842C20.7853 29.9842 22.7803 29.988 24.824 29.1967C27.6028 28.118 29.7003 25.6342 29.9053 21.173C30.0353 18.4117 30.0278 11.5767 29.9053 8.81424C29.6578 3.54798 26.8315 0.354233 21.1853 0.0942333ZM25.554 25.5592C23.6628 27.4505 21.039 27.2817 14.969 27.2817C8.71904 27.2817 6.21279 27.3742 4.38404 25.5405C2.27778 23.4442 2.65903 20.078 2.65903 14.9742C2.65903 8.06799 1.95028 3.09423 8.88154 2.73923C10.474 2.68298 10.9428 2.66423 14.9515 2.66423L15.0078 2.70173C21.669 2.70173 26.8953 2.00423 27.209 8.93424C27.2803 10.5155 27.2965 10.9905 27.2965 14.993C27.2953 21.1705 27.4128 23.6917 25.554 25.5592Z" fill="black"/>
<path d="M23.0077 8.79172C24.0012 8.79172 24.8065 7.98639 24.8065 6.99296C24.8065 5.99954 24.0012 5.19421 23.0077 5.19421C22.0143 5.19421 21.209 5.99954 21.209 6.99296C21.209 7.98639 22.0143 8.79172 23.0077 8.79172Z" fill="black"/>
</svg>
